<svg width="254" height="20" viewBox="0 0 254 20" xmlns="http://www.w3.org/2000/svg"><g fill-rule="nonzero" fill="none"><path d="M114.662 19.746h3.812c4.107 0 6.627-2.392 6.627-6.987 0-4.573-2.52-6.86-6.755-6.86h-3.684v13.847Zm2.456-1.99V7.89h1.059c2.795 0 4.404 1.482 4.404 4.87 0 3.409-1.61 4.996-4.404 4.996h-1.06v.001Zm9.867-3.197c0 3.451 2.35 5.441 4.933 5.441 2.605 0 4.955-1.99 4.955-5.441 0-3.474-2.35-5.463-4.955-5.463-2.583 0-4.933 1.99-4.933 5.463Zm2.498 0c0-2.097.91-3.474 2.436-3.474 1.523 0 2.455 1.377 2.455 3.474 0 2.074-.932 3.451-2.455 3.451-1.526 0-2.436-1.377-2.436-3.451Zm9.126 0c0 3.451 2.18 5.441 5.018 5.441 1.185 0 2.436-.466 3.41-1.334l-1.017-1.546c-.572.467-1.291.89-2.14.89-1.63 0-2.772-1.377-2.772-3.451 0-2.097 1.164-3.474 2.836-3.474.657 0 1.207.276 1.758.764l1.165-1.547c-.699-.677-1.716-1.207-3.05-1.207-2.773 0-5.208 1.991-5.208 5.463Zm10.353 1.312c0 2.626.975 4.129 3.198 4.129 1.419 0 2.435-.698 3.346-1.779h.062l.19 1.525h1.991V9.35h-2.434v7.114c-.784 1.016-1.398 1.44-2.308 1.44-1.122 0-1.609-.635-1.609-2.35V9.35h-2.436v6.521Zm11.88 3.875h2.433v-7.263c.806-.868 1.547-1.291 2.182-1.291 1.1 0 1.609.636 1.609 2.35v6.204h2.435v-7.263c.805-.868 1.524-1.291 2.181-1.291 1.08 0 1.588.636 1.588 2.35v6.204h2.455v-6.521c0-2.626-1.015-4.13-3.218-4.13-1.312 0-2.35.806-3.345 1.864-.487-1.164-1.355-1.864-2.88-1.864-1.29 0-2.307.742-3.176 1.673h-.085l-.169-1.417h-2.01v10.395Zm17.171-5.187c0 3.43 2.244 5.441 5.124 5.441 1.313 0 2.561-.466 3.557-1.123l-.826-1.523c-.762.487-1.525.76-2.414.76-1.673 0-2.858-1.057-3.07-2.942h6.607c.062-.254.104-.677.104-1.142 0-2.902-1.481-4.935-4.297-4.935-2.435 0-4.786 2.075-4.786 5.463h.001Zm2.35-.933c.212-1.736 1.27-2.645 2.498-2.645 1.418 0 2.118.994 2.118 2.645h-4.615Zm9.062 6.12h2.435v-7.263c.868-.847 1.46-1.291 2.371-1.291 1.144 0 1.63.636 1.63 2.35v6.204h2.436v-6.521c0-2.626-.975-4.13-3.198-4.13-1.418 0-2.477.742-3.408 1.652h-.085l-.17-1.397h-2.011v10.396Zm12.217-3.515c0 2.245.89 3.769 3.303 3.769.826 0 1.546-.19 2.118-.38l-.424-1.801a2.98 2.98 0 0 1-1.08.233c-.995 0-1.461-.593-1.461-1.82v-4.955h2.647V9.35h-2.646V6.513h-2.033l-.297 2.837-1.61.105v1.822h1.483v4.955-.001Zm6.522.72c0 1.821 1.27 3.049 3.09 3.049 1.228 0 2.287-.614 3.219-1.397h.064l.19 1.143h1.99v-6.162c0-2.9-1.27-4.489-3.874-4.489-1.652 0-3.113.636-4.257 1.356l.89 1.63c.91-.55 1.884-1.017 2.922-1.017 1.397 0 1.864.933 1.884 2.033-4.255.466-6.12 1.631-6.12 3.854h.002Zm2.37-.19c0-1.038.933-1.78 3.749-2.14v2.33c-.763.72-1.42 1.143-2.266 1.143-.868 0-1.483-.402-1.483-1.333Zm9.507-.53c0 2.245.89 3.769 3.304 3.769.826 0 1.545-.19 2.117-.38l-.423-1.801a2.98 2.98 0 0 1-1.08.233c-.996 0-1.461-.593-1.461-1.82v-4.955h2.646V9.35h-2.646V6.513h-2.033l-.297 2.837-1.608.105v1.822h1.482v4.955l-.001-.001Zm8.512-8.702c.868 0 1.504-.572 1.504-1.377 0-.825-.636-1.397-1.504-1.397s-1.503.571-1.503 1.398c0 .804.635 1.376 1.503 1.376Zm-1.228 12.217h2.435V9.35h-2.435v10.396Zm4.87-5.187c0 3.451 2.35 5.441 4.934 5.441 2.604 0 4.954-1.99 4.954-5.441 0-3.474-2.35-5.463-4.954-5.463-2.584 0-4.934 1.99-4.934 5.463Zm2.499 0c0-2.097.91-3.474 2.435-3.474 1.524 0 2.455 1.377 2.455 3.474 0 2.074-.93 3.451-2.455 3.451s-2.436-1.377-2.436-3.451Zm9.803 5.187h2.435v-7.263c.867-.847 1.461-1.291 2.37-1.291 1.145 0 1.631.636 1.631 2.35v6.204h2.436v-6.521c0-2.626-.974-4.13-3.197-4.13-1.42 0-2.478.742-3.41 1.652h-.085l-.169-1.397h-2.012v10.396h.001Z" fill="#333"/><path d="M8.923.225c.263.052.39.178.39.463v1.62c0 .26-.132.385-.415.385H7.179c-1.273 0-1.848.102-1.848 1.209v1.527c0 .095.077.171.171.171h3.083c.284 0 .388.128.338.41l-.31 1.67c-.055.26-.182.361-.444.361H5.504a.17.17 0 0 0-.173.17v11.2a.38.38 0 0 1-.383.378H2.571a.382.382 0 0 1-.384-.378v-11.2a.17.17 0 0 0-.171-.17H.415C.13 8.041 0 7.911 0 7.658V5.986c0-.26.131-.384.415-.384h1.6a.17.17 0 0 0 .172-.17V3.29C2.187.233 4.477 0 6.375 0c.782-.01 1.772.094 2.548.224ZM14.707 0c.234 0 .426.17.426.38v19.027c0 .211-.19.382-.426.382h-2.642c-.234 0-.425-.172-.425-.381V.381c0-.21.19-.381.425-.381h2.642v.001Zm14.394 12.542v.745c0 .468-.15.671-.837.671H20.84a.364.364 0 0 0-.364.39c.124 2.3.774 2.839 3.038 2.839h4.215a.364.364 0 0 1 .363.365v1.544c0 .27-.124.37-.346.421-1.304.198-2.83.272-4.406.272-4.8 0-5.88-1.393-5.88-6.973 0-5.609 1.08-6.996 5.88-6.996 4.628-.005 5.714 1.335 5.76 6.721v.001Zm-8.27-.748h4.894a.364.364 0 0 0 .363-.379c-.072-2.365-.666-2.994-2.747-2.994-2.176 0-2.796.628-2.872 2.994a.367.367 0 0 0 .365.38h-.002Z" fill="#00A1DE"/><path d="M57.038 12.542v.746c0 .468-.149.671-.838.671h-7.422a.364.364 0 0 0-.364.39c.126 2.3.775 2.839 3.04 2.839h4.213c.201.001.363.164.363.365v1.544c0 .27-.124.37-.347.421-1.303.198-2.828.272-4.405.272-4.8 0-5.88-1.393-5.88-6.973 0-5.609 1.08-6.996 5.88-6.996 4.628-.005 5.713 1.335 5.762 6.721h-.002Zm-8.267-.747h4.893a.364.364 0 0 0 .364-.379c-.073-2.365-.666-2.994-2.748-2.994-2.176 0-2.795.628-2.872 2.994a.367.367 0 0 0 .365.38h-.002Zm18.32-5.7c.268.072.424.174.424.451v1.527c0 .275-.161.4-.452.373h-2.414c-1.596 0-2.071.252-2.071 1.353v9.62a.38.38 0 0 1-.391.37h-2.43a.382.382 0 0 1-.39-.37V9.025c0-2.978 2.521-3.203 4.484-3.203.692 0 2.521.072 3.24.273v.001ZM80.32 9.891v8.631c0 .324-.054.568-.51.72-1.325.372-3.573.548-5.745.548-3.573 0-5.386-.547-5.386-4.145 0-3.147 1.712-3.946 4.85-3.946h3.324a.371.371 0 0 0 .377-.363v-.923c0-1.392-.843-1.986-2.886-1.986H70.15a.371.371 0 0 1-.375-.367V6.54c0-.296.102-.35.358-.396 1.533-.273 2.912-.324 4.21-.324 4.496 0 5.977 1.391 5.977 4.071Zm-6.614 3.968c-1.352 0-1.964.422-1.964 1.66 0 1.414.687 1.763 2.58 1.763.568 0 1.748-.038 2.607-.206a.368.368 0 0 0 .3-.362v-2.49a.371.371 0 0 0-.376-.366h-3.147v.001Z" fill="#333"/><path d="m38.247 12.095-1.096-1.494-3.23-4.543c-.106-.159-.236-.236-.419-.236h-2.934c-.316 0-.396.21-.182.478l4.485 6.306c1.795 2.34 1.18 3.532 1.082 3.692l2.29-3.178a.86.86 0 0 0 .004-1.024v-.001Z" fill="#00A1DE"/><path d="m34.715 12.805-5.53 6.549c-.168.24-.087.436.258.436h3.156a.561.561 0 0 0 .425-.215l2.852-3.385.014-.017c.107-.146.773-1.237-1.175-3.37v.002Z" fill="#00549F"/><path d="M39.901 10.87a.292.292 0 0 0 .482 0l3.203-4.587c.198-.255.122-.462-.175-.462H40.63a.442.442 0 0 0-.4.228L38.448 8.59a.19.19 0 0 0 0 .22l1.454 2.06h-.001Zm4.258 8.458-3.776-5.424a.29.29 0 0 0-.48 0l-1.455 2.074a.19.19 0 0 0 0 .22L40.8 19.56c.098.13.198.229.371.229h2.76c.303 0 .376-.207.227-.462Zm38.211-.684h-.362v1.282h-.162v-1.277h-.362v-.18h.886v.175Zm1.442 1.282h-.164v-1.209l-.39 1.209h-.118l-.397-1.209v1.209h-.157V18.47h.244l.371 1.142.37-1.142h.241v1.456Z" fill="#333"/></g></svg>