<svg id="Layer_1" data-name="Layer 1" xmlns="http://www.w3.org/2000/svg" viewBox="0 0 20 20"><defs><style>.cls-1{fill:#595a5a;fill-rule:evenodd;}</style></defs><title>note</title><g id="Group"><path id="Fill-1" class="cls-1" d="M11.2,16H1.6V3.22H7.2v2.4a1.6,1.6,0,0,0,1.6,1.6h2.4ZM8,1.62H1.6A1.6,1.6,0,0,0,0,3.22V16a1.6,1.6,0,0,0,1.6,1.6h9.6A1.6,1.6,0,0,0,12.8,16V6.42Zm-4,8H8.81a.79.79,0,0,1,.79.79h0a.79.79,0,0,1-.79.8H4a.79.79,0,0,1-.79-.8h0A.79.79,0,0,1,4,9.62Zm0,3.2H8.81a.79.79,0,0,1,.79.79h0a.79.79,0,0,1-.79.8H4a.79.79,0,0,1-.79-.8h0A.79.79,0,0,1,4,12.82Z"/></g></svg>