<svg id="Layer_1" data-name="Layer 1" xmlns="http://www.w3.org/2000/svg" viewBox="0 0 20 20"><defs><style>.cls-1{fill:#595a5a;}</style></defs><title>note</title><path class="cls-1" d="M14.55,2.34H1.45A1.45,1.45,0,0,0,0,3.8v8.72A1.46,1.46,0,0,0,1.45,14h5.1v1.45H5.09v1.46h5.82V15.43H9.45V14h1.46V12.52H1.45V3.8h13.1V7.43H16V3.8A1.45,1.45,0,0,0,14.55,2.34ZM0,3.8V7.43H1.45V3.8h13.1v8.72H5.09V14H6.55v1.45H5.09v1.46h5.82V15.43H9.45V14h5.1A1.46,1.46,0,0,0,16,12.52V3.8a1.45,1.45,0,0,0-1.45-1.46H1.45A1.45,1.45,0,0,0,0,3.8Z"/></svg>