<svg id="Layer_1" data-name="Layer 1" xmlns="http://www.w3.org/2000/svg" viewBox="0 0 20 20"><defs><style>.cls-1{fill:#595a5a;}</style></defs><title>note</title><g id="Group"><path id="Shape" class="cls-1" d="M11,1.62H5.05a.89.89,0,0,0-.62.25L.26,6.06A.87.87,0,0,0,0,6.68v5.9a.88.88,0,0,0,.26.63l4.18,4.15a1,1,0,0,0,.63.26H11a.94.94,0,0,0,.62-.26l4.15-4.19a.85.85,0,0,0,.26-.62V6.66A.87.87,0,0,0,15.74,6L11.56,1.87A.88.88,0,0,0,11,1.62Zm3.27,10.57-3.64,3.65H5.42L1.78,12.19V7L5.42,3.39h5.16L14.22,7Z"/><circle id="Oval" class="cls-1" cx="8" cy="13.17" r="0.89"/><path id="Path" class="cls-1" d="M8,5.17H8a.89.89,0,0,1,.89.89V10.5a.89.89,0,0,1-.89.89H8a.89.89,0,0,1-.89-.89V6.06A.89.89,0,0,1,8,5.17Z"/></g></svg>