<svg id="Layer_1" data-name="Layer 1" xmlns="http://www.w3.org/2000/svg" viewBox="0 0 20 20"><defs><style>.cls-1{fill:#595a5a;}</style></defs><title>note</title><g id="Group"><path id="Shape" class="cls-1" d="M10.67,7H9.9V5.43a3.81,3.81,0,1,0-7.61,0V7H1.52A1.52,1.52,0,0,0,0,8.47v7.62a1.53,1.53,0,0,0,1.52,1.53h9.15a1.53,1.53,0,0,0,1.52-1.53V8.47A1.52,1.52,0,0,0,10.67,7ZM3.81,5.43a2.29,2.29,0,1,1,4.57,0V7H3.81Zm6.86,10.66H1.52V8.47h9.15ZM6.1,13.81a1.53,1.53,0,1,0-1.53-1.53A1.53,1.53,0,0,0,6.1,13.81Z"/></g></svg>