<svg id="Layer_1" data-name="Layer 1" xmlns="http://www.w3.org/2000/svg" xmlns:xlink="http://www.w3.org/1999/xlink" viewBox="0 0 20 20"><defs><style>.cls-1{fill:#fff;}.cls-1,.cls-3{fill-rule:evenodd;}.cls-2{mask:url(#mask);}.cls-3{fill:#595a5a;}</style><mask id="mask" x="0" y="2.81" width="15.56" height="16" maskUnits="userSpaceOnUse"><g id="mask-2"><polygon id="path-1" class="cls-1" points="0 2.81 15.56 2.81 15.56 18.81 0 18.81 0 2.81"/></g></mask></defs><title>note</title><g id="md_settings" data-name="md settings"><g id="Group"><g class="cls-2"><path id="Fill-1" class="cls-3" d="M7.78,12.41a1.6,1.6,0,1,1,1.6-1.6,1.6,1.6,0,0,1-1.6,1.6Zm0-4.8a3.2,3.2,0,1,0,3.2,3.2,3.2,3.2,0,0,0-3.2-3.2Zm4.36,2.62a3.19,3.19,0,0,1,0,.58,4.45,4.45,0,0,1,0,.58L12,12.3l.71.56.87.67-.56,1-1-.41-.83-.34-.72.55a4.52,4.52,0,0,1-1,.58l-.85.35-.13.9-.16,1.08H7.22l-.15-1.08-.13-.9-.84-.35a4.3,4.3,0,0,1-1-.57l-.73-.56-.84.35-1,.41-.56-1,.86-.67.72-.56-.12-.91c0-.25,0-.43,0-.59s0-.34,0-.58l.12-.91-.72-.56L2,8.09l.56-1,1,.41.83.34.72-.55a4.52,4.52,0,0,1,1-.58l.85-.35.12-.9.16-1.08H8.34l.15,1.08.13.9.84.35a4.3,4.3,0,0,1,1,.57l.73.56L12,7.52l1-.41.56,1-.86.68L12,9.32Zm1.59,1.36a6.11,6.11,0,0,0,0-1.56l1.69-1.32a.41.41,0,0,0,.09-.52l-1.6-2.76a.39.39,0,0,0-.35-.2.32.32,0,0,0-.14,0l-2,.8a5.66,5.66,0,0,0-1.35-.78l-.3-2.12a.4.4,0,0,0-.4-.34H6.18a.39.39,0,0,0-.39.34l-.3,2.12a6,6,0,0,0-1.35.78l-2-.8a.32.32,0,0,0-.14,0,.38.38,0,0,0-.34.2L.06,8.19a.4.4,0,0,0,.09.52L1.84,10a6.65,6.65,0,0,0-.06.78,6.65,6.65,0,0,0,.06.78L.15,12.91a.41.41,0,0,0-.09.52l1.6,2.76a.38.38,0,0,0,.35.2.27.27,0,0,0,.13,0l2-.8a5.66,5.66,0,0,0,1.35.78l.3,2.12a.39.39,0,0,0,.39.34h3.2a.4.4,0,0,0,.4-.34l.3-2.12a6,6,0,0,0,1.35-.78l2,.8a.42.42,0,0,0,.49-.18l1.6-2.76a.41.41,0,0,0-.09-.52Z"/></g></g></g></svg>