<svg id="Layer_1" data-name="Layer 1" xmlns="http://www.w3.org/2000/svg" viewBox="0 0 20 20"><defs><style>.cls-1{fill:#595a5a;}</style></defs><title>note</title><path class="cls-1" d="M3.2,12.82H8.8v1.6H3.2Zm0-3.2h8v1.6h-8Zm0-3.2h8V8h-8Zm9.6-3.2H9.46a2.4,2.4,0,0,0-4.52,0H1.6a1.12,1.12,0,0,0-.32,0,1.58,1.58,0,0,0-.81.44,1.63,1.63,0,0,0-.34.51A1.52,1.52,0,0,0,0,4.82V16a1.64,1.64,0,0,0,.13.62,1.75,1.75,0,0,0,.34.51,1.58,1.58,0,0,0,.81.44,1.66,1.66,0,0,0,.32,0H12.8A1.6,1.6,0,0,0,14.4,16V4.82A1.6,1.6,0,0,0,12.8,3.22ZM7.2,3a.6.6,0,0,1,.6.6.6.6,0,0,1-1.2,0A.6.6,0,0,1,7.2,3Zm5.6,13H1.6V4.82H12.8Z"/></svg>