<svg id="Layer_1" data-name="Layer 1" xmlns="http://www.w3.org/2000/svg" xmlns:xlink="http://www.w3.org/1999/xlink" viewBox="0 0 20 20"><defs><style>.cls-1{fill:#fff;}.cls-1,.cls-3{fill-rule:evenodd;}.cls-2{mask:url(#mask);}.cls-3{fill:#595a5a;}</style><mask id="mask" x="0" y="3.6" width="16" height="14.03" maskUnits="userSpaceOnUse"><g id="mask-2"><polygon id="path-1" class="cls-1" points="0 3.6 16 3.6 16 17.63 0 17.63 0 3.6"/></g></mask></defs><title>note</title><g id="Group"><g class="cls-2"><path id="Fill-1" class="cls-3" d="M8,9.06H8a.78.78,0,0,0-.77.78v1.57a.78.78,0,0,0,.77.77H8a.78.78,0,0,0,.77-.77V9.84A.78.78,0,0,0,8,9.06m0,4.68H8a.77.77,0,0,0-.77.77h0a.77.77,0,0,0,.77.77H8a.77.77,0,0,0,.77-.77h0A.77.77,0,0,0,8,13.74M7.33,4,.11,16.47a.77.77,0,0,0,.66,1.16H15.23a.78.78,0,0,0,.67-1.16L8.67,4A.77.77,0,0,0,7.33,4m.67,2,5.86,10.13H2.14L8,5.94"/></g></g></svg>