<svg id="Layer_1" data-name="Layer 1" xmlns="http://www.w3.org/2000/svg" xmlns:xlink="http://www.w3.org/1999/xlink" viewBox="0 0 20 20"><defs><style>.cls-1{fill:#fff;}.cls-1,.cls-4{fill-rule:evenodd;}.cls-2,.cls-4{fill:#595a5a;}.cls-3{mask:url(#mask);}</style><mask id="mask" x="3.8" y="4.93" width="8.72" height="6.53" maskUnits="userSpaceOnUse"><g id="mask-2"><polygon id="path-1" class="cls-1" points="3.8 4.92 12.51 4.92 12.51 11.46 3.8 11.46 3.8 4.92"/></g></mask></defs><title>note</title><path class="cls-2" d="M14.55,2.34H1.45A1.45,1.45,0,0,0,0,3.8v8.72A1.46,1.46,0,0,0,1.45,14h5.1v1.45H5.09v1.46h5.82V15.43H9.45V14h1.46V12.52H1.45V3.8h13.1V7.43H16V3.8A1.45,1.45,0,0,0,14.55,2.34ZM0,3.8V7.43H1.45V3.8h13.1v8.72H5.09V14H6.55v1.45H5.09v1.46h5.82V15.43H9.45V14h5.1A1.46,1.46,0,0,0,16,12.52V3.8a1.45,1.45,0,0,0-1.45-1.46H1.45A1.45,1.45,0,0,0,0,3.8Z"/><g id="Group"><g class="cls-3"><path id="Fill-1" class="cls-4" d="M6.49,10.22,4.67,8.4A.51.51,0,0,0,4,8.4H4a.51.51,0,0,0,0,.72l2.18,2.19a.52.52,0,0,0,.73,0l5.5-5.51a.51.51,0,0,0,0-.72.49.49,0,0,0-.72,0Z"/></g></g></svg>