<svg id="Layer_1" data-name="Layer 1" xmlns="http://www.w3.org/2000/svg" xmlns:xlink="http://www.w3.org/1999/xlink" viewBox="0 0 20 20"><defs><style>.cls-1{fill:#fff;}.cls-1,.cls-3{fill-rule:evenodd;}.cls-2{mask:url(#mask);}.cls-3{fill:#595a5a;}</style><mask id="mask" x="0" y="3.37" width="16" height="14.88" maskUnits="userSpaceOnUse"><g id="mask-2"><polygon id="path-1" class="cls-1" points="0 3.37 16 3.37 16 18.25 0 18.25 0 3.37"/></g></mask></defs><title>note</title><g id="Group"><g class="cls-2"><path id="Fill-1" class="cls-3" d="M4,6.57h8a.8.8,0,0,1,.79.8h0a.79.79,0,0,1-.79.79H4a.79.79,0,0,1-.79-.79h0A.79.79,0,0,1,4,6.57ZM4,9h8a.8.8,0,0,1,.79.8h0a.79.79,0,0,1-.79.79H4a.79.79,0,0,1-.79-.79h0A.79.79,0,0,1,4,9Zm0,2.4H8.81a.8.8,0,0,1,.79.8h0a.79.79,0,0,1-.79.79H4a.79.79,0,0,1-.79-.79h0a.79.79,0,0,1,.79-.8Zm-2.39-8A1.6,1.6,0,0,0,0,5V17.46A.79.79,0,0,0,1.35,18L3.2,16.17H14.4a1.6,1.6,0,0,0,1.6-1.6V5a1.6,1.6,0,0,0-1.6-1.6ZM1.6,5H14.4v9.6H2.54l-.94.94V5Z"/></g></g></svg>