<svg id="Layer_1" data-name="Layer 1" xmlns="http://www.w3.org/2000/svg" xmlns:xlink="http://www.w3.org/1999/xlink" viewBox="0 0 20 20"><defs><style>.cls-1{fill:#fff;}.cls-1,.cls-3{fill-rule:evenodd;}.cls-2{mask:url(#mask);}.cls-3{fill:#595a5a;}</style><mask id="mask" x="0" y="2.34" width="14.12" height="16" maskUnits="userSpaceOnUse"><g id="mask-2"><polygon id="path-1" class="cls-1" points="0 2.33 14.12 2.33 14.12 18.34 0 18.34 0 2.33"/></g></mask></defs><title>note</title><g id="md_flag" data-name="md flag"><g id="Group"><g class="cls-2"><path id="Fill-1" class="cls-3" d="M7.71,2.34H.93A.93.93,0,0,0,0,3.27V17.4a.94.94,0,0,0,.93.94H1a.94.94,0,0,0,.93-.94V11.75H7.15l.23,1.13a.93.93,0,0,0,.91.75h4.89a.94.94,0,0,0,.94-.93V5.15a.93.93,0,0,0-.94-.93H8.85L8.62,3.08a.93.93,0,0,0-.91-.74M6.93,4.22,7.3,6.1h4.94v5.65H9.07L8.7,9.86H1.88V4.22H6.93"/></g></g></g></svg>