<svg id="Layer_1" data-name="Layer 1" xmlns="http://www.w3.org/2000/svg" xmlns:xlink="http://www.w3.org/1999/xlink" viewBox="0 0 20 20"><defs><style>.cls-1{fill:#fff;}.cls-1,.cls-2{fill-rule:evenodd;}.cls-2{fill:#595a5a;}.cls-3{mask:url(#mask);}</style><mask id="mask" x="2.74" y="8.1" width="6.93" height="6.62" maskUnits="userSpaceOnUse"><g id="mask-2"><polygon id="path-1" class="cls-1" points="2.74 8.1 9.67 8.1 9.67 14.72 2.74 14.72 2.74 8.1"/></g></mask></defs><title>note</title><path id="Fill-1" class="cls-2" d="M11.2,16H1.6V3.22H7.2v2.4a1.6,1.6,0,0,0,1.6,1.6h2.4ZM8,1.62H1.6A1.6,1.6,0,0,0,0,3.22V16a1.6,1.6,0,0,0,1.6,1.6h9.6A1.6,1.6,0,0,0,12.8,16V6.42Z"/><g id="Group"><g class="cls-3"><path id="Fill-1-2" data-name="Fill-1" class="cls-2" d="M6.2,12.88l-1.51.92.4-1.73L3.75,10.91l1.77-.16L6.2,9.13l.7,1.63,1.76.15L7.32,12.08l.41,1.72Zm3.1-2.57-2-.16L6.57,8.34a.39.39,0,0,0-.73,0l-.77,1.81-2,.17a.4.4,0,0,0-.23.7l1.49,1.29-.45,1.91a.41.41,0,0,0,.6.44l1.68-1,1.69,1a.41.41,0,0,0,.6-.44L8,12.31,9.53,11a.4.4,0,0,0-.23-.7Z"/></g></g></svg>