<svg id="Layer_1" data-name="Layer 1" xmlns="http://www.w3.org/2000/svg" xmlns:xlink="http://www.w3.org/1999/xlink" viewBox="0 0 20 20"><defs><style>.cls-1{fill:#fff;}.cls-1,.cls-3{fill-rule:evenodd;}.cls-2{mask:url(#mask);}.cls-3{fill:#595a5a;}</style><mask id="mask" x="0" y="2.22" width="16" height="15.29" maskUnits="userSpaceOnUse"><g id="mask-2"><polygon id="path-1" class="cls-1" points="0 2.22 16 2.22 16 17.51 0 17.51 0 2.22"/></g></mask></defs><title>note</title><g id="Group"><g class="cls-2"><path id="Fill-1" class="cls-3" d="M8,13.28,4.49,15.4l.93-4L2.32,8.72l4.09-.36L8,4.6,9.59,8.37l4.09.36-3.1,2.68.94,4Zm7.15-5.93L10.62,7,8.85,2.78a.92.92,0,0,0-1.7,0L5.37,7,.85,7.35A.92.92,0,0,0,.32,9l3.44,3-1,4.42a.92.92,0,0,0,1.37,1L8,15l3.89,2.35a.93.93,0,0,0,1.38-1l-1-4.43,3.44-3a.92.92,0,0,0-.53-1.61Z"/></g></g></svg>